<svg
  width="32px"
  height="32px"
  viewBox="0 0 24 24"
  version="1.1"
  xmlns="http://www.w3.org/2000/svg"
  xmlns:xlink="http://www.w3.org/1999/xlink"
>
  <g stroke="none" fill="none" fill-rule="evenodd">
    <path
      d="M5.97548387,15.432683 L5.97548387,17.9264516 L0,11.9509677 L1.24768103,10.7032867 L5.97548387,15.432683 Z M8.46925247,17.9264516 L5.97548387,17.9264516 L11.9509677,23.9019355 L13.1986488,22.6542545 L8.46925247,17.9264516 Z M22.6510675,13.1986488 L23.8987486,11.9509677 L11.9477808,0 L10.7032867,1.25086796 L15.4310895,5.9786708 L12.5740115,5.9786708 L9.27395097,2.68498409 L8.02626994,3.93266512 L10.0786495,5.98504465 L8.64453333,5.98504465 L8.64453333,15.2605891 L17.9200778,15.2605891 L17.9200778,13.8264729 L19.9724573,15.8788525 L21.2201383,14.6311714 L17.9200778,11.3311109 L17.9200778,8.47403286 L22.6510675,13.1986488 Z M6.59852766,5.35722047 L5.3476597,6.60490151 L6.68616809,7.94340989 L7.93384912,6.69572886 L6.59852766,5.35722047 Z M17.210987,15.9696798 L15.963306,17.2173609 L17.3018144,18.5558692 L18.5494954,17.3081882 L17.210987,15.9696798 Z M3.92151088,8.03264378 L2.67382985,9.28032482 L5.97389041,12.5803854 L5.97389041,10.0850233 L3.92151088,8.03264378 Z M13.8200991,17.931232 L11.3263305,17.931232 L14.6263911,21.2312926 L15.8740721,19.9836115 L13.8200991,17.931232 Z"
      fill="#FF6061"
    />
  </g>
</svg>
